<svg width="400" height="300" viewBox="0 0 400 300" fill="none" xmlns="http://www.w3.org/2000/svg">
<g clip-path="url(#clip0_14_2)">
<path d="M388 0H12C5.37258 0 0 5.37258 0 12V288C0 294.627 5.37258 300 12 300H388C394.627 300 400 294.627 400 288V12C400 5.37258 394.627 0 388 0Z" fill="#D9D9D9"/>
<path d="M110 237L160 187L210 217L260 167L310 197" stroke="#2C2C2C" stroke-width="4" stroke-linecap="round" stroke-linejoin="round"/>
<path d="M126 62H94C91.7909 62 90 63.7909 90 66V138C90 140.209 91.7909 142 94 142H126C128.209 142 130 140.209 130 138V66C130 63.7909 128.209 62 126 62Z" fill="#00CF7C"/>
<path d="M186 82H154C151.791 82 150 83.7909 150 86V138C150 140.209 151.791 142 154 142H186C188.209 142 190 140.209 190 138V86C190 83.7909 188.209 82 186 82Z" fill="#00CF7C"/>
<path d="M246 102H214C211.791 102 210 103.791 210 106V138C210 140.209 211.791 142 214 142H246C248.209 142 250 140.209 250 138V106C250 103.791 248.209 102 246 102Z" fill="#FF3F3F"/>
<path d="M306 72H274C271.791 72 270 73.7909 270 76V138C270 140.209 271.791 142 274 142H306C308.209 142 310 140.209 310 138V76C310 73.7909 308.209 72 306 72Z" fill="#00CF7C"/>
</g>
<defs>
<clipPath id="clip0_14_2">
<rect width="400" height="300" fill="white"/>
</clipPath>
</defs>
</svg>
