<svg width="460" height="230" viewBox="0 0 460 230" fill="none" xmlns="http://www.w3.org/2000/svg">
<path d="M43.353 181.216C34.3123 181.216 26.9814 172.77 26.9814 162.35C26.9814 145.853 27.7152 134.89 16.3996 121.842C13.2001 118.159 13.2001 112.185 16.3996 108.501C27.4657 95.7476 26.9814 84.6448 26.9814 67.987C26.9814 57.574 34.3123 49.1277 43.353 49.1277" stroke="#00CF7C" stroke-width="11.0074" stroke-linecap="round" stroke-linejoin="round"/>
<path d="M221.361 71.8251C221.159 69.9329 220.307 68.4596 218.805 67.4051C217.317 66.3507 215.381 65.8235 212.998 65.8235C211.322 65.8235 209.885 66.0762 208.686 66.5818C207.487 67.0873 206.57 67.7734 205.935 68.6401C205.299 69.5068 204.974 70.4962 204.96 71.6084C204.96 72.5329 205.169 73.3345 205.588 74.0134C206.021 74.6923 206.606 75.2701 207.343 75.7468C208.08 76.209 208.896 76.599 209.791 76.9168C210.687 77.2345 211.59 77.5017 212.5 77.7184L216.66 78.7584C218.335 79.1484 219.946 79.6756 221.491 80.3401C223.051 81.0045 224.445 81.8423 225.673 82.8534C226.915 83.8645 227.897 85.0851 228.62 86.5151C229.342 87.945 229.703 89.6206 229.703 91.5417C229.703 94.1417 229.038 96.4311 227.71 98.41C226.381 100.374 224.46 101.913 221.946 103.025C219.447 104.123 216.421 104.672 212.868 104.672C209.416 104.672 206.418 104.137 203.876 103.068C201.348 101.999 199.37 100.439 197.94 98.3884C196.524 96.3372 195.759 93.8384 195.643 90.8917H203.551C203.667 92.4373 204.143 93.7228 204.981 94.7484C205.819 95.7739 206.91 96.5395 208.253 97.045C209.611 97.5506 211.127 97.8034 212.803 97.8034C214.551 97.8034 216.082 97.5434 217.396 97.0234C218.725 96.4889 219.765 95.7522 220.516 94.8134C221.267 93.86 221.65 92.7478 221.665 91.4767C221.65 90.3212 221.311 89.3678 220.646 88.6167C219.982 87.8512 219.05 87.2156 217.851 86.7101C216.667 86.1901 215.28 85.7278 213.691 85.3234L208.643 84.0234C204.988 83.0845 202.1 81.6617 199.976 79.7551C197.867 77.834 196.813 75.2845 196.813 72.1068C196.813 69.4923 197.521 67.2029 198.936 65.2385C200.366 63.274 202.309 61.7501 204.765 60.6668C207.22 59.569 210.001 59.0201 213.106 59.0201C216.255 59.0201 219.014 59.569 221.383 60.6668C223.766 61.7501 225.637 63.2596 226.995 65.1951C228.352 67.1162 229.053 69.3262 229.096 71.8251H221.361ZM264.841 59.6268H272.879V88.6167C272.879 91.7945 272.128 94.5895 270.626 97.0017C269.138 99.4139 267.043 101.299 264.342 102.657C261.641 104 258.485 104.672 254.874 104.672C251.248 104.672 248.085 104 245.384 102.657C242.683 101.299 240.589 99.4139 239.101 97.0017C237.613 94.5895 236.869 91.7945 236.869 88.6167V59.6268H244.907V87.945C244.907 89.7939 245.312 91.4406 246.121 92.885C246.944 94.3295 248.1 95.4634 249.587 96.2867C251.075 97.0956 252.837 97.5 254.874 97.5C256.911 97.5 258.673 97.0956 260.161 96.2867C261.663 95.4634 262.818 94.3295 263.627 92.885C264.436 91.4406 264.841 89.7939 264.841 87.945V59.6268ZM281.616 104V59.6268H298.256C301.665 59.6268 304.525 60.2624 306.836 61.5335C309.161 62.8046 310.916 64.5523 312.101 66.7768C313.3 68.9868 313.899 71.5001 313.899 74.3168C313.899 77.1623 313.3 79.6901 312.101 81.9001C310.902 84.1101 309.133 85.8506 306.793 87.1217C304.453 88.3784 301.571 89.0067 298.148 89.0067H287.119V82.3984H297.064C299.058 82.3984 300.69 82.0517 301.961 81.3584C303.232 80.6651 304.171 79.7117 304.778 78.4984C305.399 77.2851 305.709 75.8912 305.709 74.3168C305.709 72.7423 305.399 71.3557 304.778 70.1568C304.171 68.9579 303.225 68.0262 301.939 67.3618C300.668 66.6829 299.029 66.3435 297.021 66.3435H289.654V104H281.616ZM320.881 104V59.6268H349.741V66.3651H328.92V78.4117H348.246V85.1501H328.92V97.2617H349.915V104H320.881ZM357.942 104V59.6268H374.582C377.991 59.6268 380.851 60.219 383.162 61.4035C385.487 62.5879 387.242 64.249 388.427 66.3868C389.626 68.5101 390.225 70.9873 390.225 73.8184C390.225 76.664 389.619 79.134 388.405 81.2284C387.206 83.3084 385.437 84.9189 383.097 86.0601C380.757 87.1867 377.883 87.75 374.474 87.75H362.622V81.0767H373.39C375.384 81.0767 377.016 80.8023 378.287 80.2534C379.558 79.6901 380.497 78.874 381.104 77.8051C381.725 76.7218 382.035 75.3929 382.035 73.8184C382.035 72.244 381.725 70.9007 381.104 69.7884C380.483 68.6618 379.536 67.8096 378.265 67.2318C376.994 66.6396 375.355 66.3435 373.347 66.3435H365.98V104H357.942ZM380.865 83.8934L391.85 104H382.88L372.09 83.8934H380.865Z" fill="#2C2C2C"/>
<path d="M202.441 170.388H189.441L204.087 126.015H220.554L235.201 170.388H222.201L212.494 138.235H212.147L202.441 170.388ZM200.014 152.882H224.454V161.895H200.014V152.882ZM251.521 126.015V170.388H239.474V126.015H251.521Z" fill="#FF3F3F"/>
<path d="M265.86 170V125.627H285.1C288.48 125.627 291.318 126.082 293.615 126.992C295.926 127.902 297.667 129.187 298.837 130.848C300.021 132.51 300.613 134.467 300.613 136.72C300.613 138.352 300.252 139.84 299.53 141.183C298.822 142.527 297.825 143.653 296.54 144.563C295.254 145.459 293.752 146.08 292.033 146.427V146.86C293.94 146.932 295.673 147.416 297.233 148.312C298.793 149.193 300.035 150.413 300.96 151.973C301.884 153.519 302.347 155.339 302.347 157.433C302.347 159.86 301.711 162.019 300.44 163.912C299.183 165.804 297.392 167.292 295.067 168.375C292.741 169.458 289.968 170 286.747 170H265.86ZM277.907 160.38H283.54C285.562 160.38 287.079 160.004 288.09 159.253C289.101 158.488 289.607 157.361 289.607 155.873C289.607 154.833 289.368 153.952 288.892 153.23C288.415 152.508 287.736 151.959 286.855 151.583C285.988 151.208 284.941 151.02 283.713 151.02H277.907V160.38ZM277.907 143.567H282.847C283.901 143.567 284.833 143.401 285.642 143.068C286.45 142.736 287.079 142.26 287.527 141.638C287.989 141.003 288.22 140.23 288.22 139.32C288.22 137.948 287.729 136.901 286.747 136.178C285.764 135.442 284.522 135.073 283.02 135.073H277.907V143.567ZM306.615 170V125.627H325.768C329.061 125.627 331.943 126.226 334.413 127.425C336.883 128.624 338.804 130.35 340.176 132.603C341.549 134.857 342.235 137.558 342.235 140.707C342.235 143.885 341.527 146.564 340.111 148.745C338.71 150.926 336.739 152.573 334.196 153.685C331.669 154.797 328.715 155.353 325.335 155.353H313.895V145.993H322.908C324.324 145.993 325.53 145.82 326.526 145.473C327.538 145.112 328.31 144.542 328.845 143.762C329.394 142.982 329.668 141.963 329.668 140.707C329.668 139.436 329.394 138.403 328.845 137.608C328.31 136.8 327.538 136.207 326.526 135.832C325.53 135.442 324.324 135.247 322.908 135.247H318.661V170H306.615ZM332.615 149.633L343.708 170H330.621L319.788 149.633H332.615ZM390.356 147.813C390.356 152.753 389.396 156.921 387.475 160.315C385.554 163.695 382.961 166.259 379.696 168.007C376.432 169.74 372.792 170.607 368.776 170.607C364.732 170.607 361.077 169.733 357.813 167.985C354.563 166.223 351.977 163.652 350.056 160.272C348.15 156.877 347.196 152.724 347.196 147.813C347.196 142.873 348.15 138.713 350.056 135.333C351.977 131.939 354.563 129.375 357.813 127.642C361.077 125.894 364.732 125.02 368.776 125.02C372.792 125.02 376.432 125.894 379.696 127.642C382.961 129.375 385.554 131.939 387.475 135.333C389.396 138.713 390.356 142.873 390.356 147.813ZM377.963 147.813C377.963 145.156 377.609 142.917 376.901 141.097C376.208 139.262 375.175 137.876 373.803 136.937C372.445 135.983 370.77 135.507 368.776 135.507C366.783 135.507 365.1 135.983 363.728 136.937C362.37 137.876 361.337 139.262 360.63 141.097C359.936 142.917 359.59 145.156 359.59 147.813C359.59 150.471 359.936 152.717 360.63 154.552C361.337 156.372 362.37 157.758 363.728 158.712C365.1 159.651 366.783 160.12 368.776 160.12C370.77 160.12 372.445 159.651 373.803 158.712C375.175 157.758 376.208 156.372 376.901 154.552C377.609 152.717 377.963 150.471 377.963 147.813Z" fill="#2C2C2C"/>
<path d="M112 64L108.241 74.1563C103.315 87.4746 100.853 94.1337 95.9933 98.9933C91.1337 103.853 84.4746 106.315 71.1563 111.241L61 115L71.1563 118.759C84.4746 123.685 91.1337 126.154 95.9933 131.007C100.853 135.859 103.315 142.525 108.241 155.844L112 166L115.759 155.844C120.685 142.525 123.154 135.866 128.007 131.007C132.859 126.147 139.525 123.685 152.844 118.759L163 115L152.844 111.241C139.525 106.315 132.866 103.853 128.007 98.9933C123.147 94.1337 120.685 87.4746 115.759 74.1563L112 64Z" stroke="#2C2C2C" stroke-width="8.25553" stroke-linecap="round" stroke-linejoin="round"/>
<path d="M152.5 49L150.841 53.4807C148.669 59.3564 147.582 62.2943 145.438 64.4382C143.294 66.5821 140.356 67.6686 134.481 69.8414L130 71.5L134.481 73.1586C140.356 75.3314 143.294 76.4211 145.438 78.5618C147.582 80.7025 148.669 83.6436 150.841 89.5193L152.5 94L154.159 89.5193C156.331 83.6436 157.421 80.7057 159.562 78.5618C161.702 76.4179 164.644 75.3314 170.519 73.1586L175 71.5L170.519 69.8414C164.644 67.6686 161.706 66.5821 159.562 64.4382C157.418 62.2943 156.331 59.3564 154.159 53.4807L152.5 49Z" fill="#D9D9D9" stroke="#2C2C2C" stroke-width="4.7234" stroke-linecap="round" stroke-linejoin="round"/>
<path d="M417 181.216C426.041 181.216 433.372 172.77 433.372 162.35C433.372 145.853 432.638 134.89 443.953 121.843C447.153 118.159 447.153 112.185 443.953 108.502C432.638 95.4616 433.372 84.4909 433.372 67.9946C433.372 57.5743 426.041 49.1279 417 49.1279" stroke="#00CF7C" stroke-width="11.0074" stroke-linecap="round" stroke-linejoin="round"/>
</svg>
