<svg width="230" height="230" viewBox="0 0 230 230" fill="none" xmlns="http://www.w3.org/2000/svg">
<path d="M109 64L105.241 74.1563C100.315 87.4746 97.8529 94.1337 92.9933 98.9933C88.1337 103.853 81.4746 106.315 68.1563 111.241L58 115L68.1563 118.759C81.4746 123.685 88.1337 126.154 92.9933 131.007C97.8529 135.859 100.315 142.525 105.241 155.844L109 166L112.759 155.844C117.685 142.525 120.154 135.866 125.007 131.007C129.859 126.147 136.525 123.685 149.844 118.759L160 115L149.844 111.241C136.525 106.315 129.866 103.853 125.007 98.9933C120.147 94.1337 117.685 87.4746 112.759 74.1563L109 64Z" stroke="#2C2C2C" stroke-width="8.25553" stroke-linecap="round" stroke-linejoin="round"/>
<path d="M149.5 49L147.841 53.4807C145.669 59.3564 144.582 62.2943 142.438 64.4382C140.294 66.5821 137.356 67.6686 131.481 69.8414L127 71.5L131.481 73.1586C137.356 75.3314 140.294 76.4211 142.438 78.5618C144.582 80.7025 145.669 83.6436 147.841 89.5193L149.5 94L151.159 89.5193C153.331 83.6436 154.421 80.7057 156.562 78.5618C158.702 76.4179 161.644 75.3314 167.519 73.1586L172 71.5L167.519 69.8414C161.644 67.6686 158.706 66.5821 156.562 64.4382C154.418 62.2943 153.331 59.3564 151.159 53.4807L149.5 49Z" fill="#D9D9D9" stroke="#2C2C2C" stroke-width="4.7234" stroke-linecap="round" stroke-linejoin="round"/>
<path d="M41 180C32.068 180 24.8253 171.623 24.8253 161.289C24.8253 144.928 25.5503 134.055 14.3707 121.116C11.2097 117.462 11.2097 111.538 14.3707 107.885C25.3038 95.2357 24.8253 84.2244 24.8253 67.7039C24.8253 57.3767 32.068 49 41 49" stroke="#00CF7C" stroke-width="11.0074" stroke-linecap="round" stroke-linejoin="round"/>
<path d="M188 180C196.932 180 204.175 171.623 204.175 161.289C204.175 144.928 203.45 134.055 214.629 121.116C217.79 117.462 217.79 111.538 214.629 107.885C203.45 94.9519 204.175 84.0716 204.175 67.7112C204.175 57.3767 196.932 49 188 49" stroke="#00CF7C" stroke-width="11.0074" stroke-linecap="round" stroke-linejoin="round"/>
</svg>
